<svg width="12" height="9" viewBox="0 0 12 9" fill="none" xmlns="http://www.w3.org/2000/svg">
<path d="M4.00052 6.95578L10.0735 0.873027C10.2115 0.734694 10.387 0.665527 10.6 0.665527C10.8132 0.665527 10.989 0.734528 11.1275 0.872528C11.2659 1.01053 11.335 1.18611 11.335 1.39928C11.335 1.61261 11.2659 1.78853 11.1275 1.92703L4.63327 8.41153C4.45243 8.59236 4.24152 8.68278 4.00052 8.68278C3.75952 8.68278 3.5486 8.59236 3.36777 8.41153L0.873516 5.92703C0.735183 5.78903 0.666016 5.61353 0.666016 5.40053C0.666016 5.18736 0.735016 5.01153 0.873016 4.87303C1.01102 4.73469 1.1866 4.66553 1.39977 4.66553C1.6131 4.66553 1.78902 4.73469 1.92752 4.87303L4.00052 6.95578Z" fill="white"/>
</svg>
