<svg width="300" height="60" viewBox="0 0 300 60" fill="none" xmlns="http://www.w3.org/2000/svg">
<g clip-path="url(#clip0_532_2156)">
<path d="M90.9754 32.3797C90.3466 31.2846 89.4985 30.3647 88.453 29.6419C88.3068 29.5396 88.1605 29.4447 88.0143 29.3498C88.2921 29.0724 88.5554 28.7803 88.8112 28.4591C89.8495 27.1595 90.3832 25.4657 90.3832 23.4287C90.3832 20.7711 89.4181 18.5808 87.5244 16.9161C85.6893 15.3099 83.0572 14.4922 79.7013 14.4922H70.16C69.2022 14.4922 68.3467 14.8499 67.6887 15.5362C67.0453 16.2006 66.709 17.0476 66.709 17.9748V42.4771C66.709 43.4189 67.0599 44.2659 67.7106 44.9229C68.3687 45.58 69.2095 45.9232 70.16 45.9232H79.9426C82.6624 45.9232 84.9143 45.5435 86.6325 44.7988C88.4749 44.003 89.8495 42.8349 90.7122 41.3308C91.5384 39.8925 91.9551 38.2279 91.9551 36.3807C91.9551 34.8621 91.6261 33.5114 90.9681 32.3797H90.9754ZM73.6475 26.6849V21.1799H79.4161C80.8857 21.1799 81.9971 21.4501 82.7355 21.9904C83.3497 22.443 83.6056 22.9541 83.6056 23.7061C83.6056 24.2902 83.4813 24.8159 83.2327 25.2758C83.0353 25.6409 82.6405 25.9548 82.0482 26.2031C81.5437 26.4221 80.5567 26.6776 78.7289 26.6776H73.6475V26.6849ZM85.1409 36.2201C85.1409 36.8261 85.002 37.3518 84.7388 37.7898C84.5049 38.1695 84.0296 38.498 83.3497 38.7536C82.7647 38.9726 81.6388 39.2354 79.577 39.2354H73.6475V33.2486H79.6135C81.5876 33.2486 83.1376 33.5479 84.0881 34.1247C84.6072 34.4386 85.1409 34.9351 85.1409 36.2201Z" fill="#222222"/>
<path d="M122.677 28.4163H114.035C113.487 28.4163 113.019 28.6134 112.632 28.9931C112.244 29.38 112.054 29.8473 112.054 30.3949C112.054 30.9425 112.251 31.4097 112.632 31.7967C113.012 32.1836 113.487 32.3735 114.035 32.3735H121.091V40.0104C120.133 40.536 119.029 40.9741 117.801 41.3246C116.536 41.6823 115.125 41.8648 113.597 41.8648C111.125 41.8648 108.991 41.3392 107.243 40.3097C105.496 39.2803 104.15 37.8712 103.236 36.1116C102.315 34.3521 101.855 32.337 101.855 30.1321C101.855 27.6059 102.374 25.4521 103.39 23.7217C104.406 21.9914 105.795 20.6626 107.528 19.7646C109.261 18.8592 111.235 18.4066 113.385 18.4066C115.052 18.4066 116.587 18.6256 117.932 19.0564C119.285 19.4871 120.616 20.0858 121.895 20.8451C122.209 21.0057 122.546 21.0861 122.897 21.0861C123.533 21.0861 124.037 20.8816 124.396 20.4801C124.747 20.0858 124.922 19.6185 124.922 19.1075C124.922 18.6621 124.812 18.2898 124.6 17.9904C124.396 17.7057 124.176 17.5012 123.957 17.3771C122.575 16.501 121.003 15.7417 119.292 15.1284C117.567 14.5078 115.432 14.2012 112.939 14.2012C110.789 14.2012 108.757 14.5808 106.907 15.3328C105.05 16.0848 103.397 17.1727 102.001 18.5745C100.604 19.969 99.4858 21.6701 98.6961 23.6268C97.8992 25.5835 97.4971 27.7811 97.4971 30.154C97.4971 33.235 98.1551 36.0021 99.4492 38.3676C100.743 40.7405 102.586 42.6241 104.911 43.9821C107.236 45.3328 109.985 46.0191 113.078 46.0191C114.986 46.0191 116.806 45.7855 118.503 45.3328C120.184 44.8802 121.771 44.2815 123.204 43.5514C123.73 43.3031 124.162 42.9235 124.483 42.4124C124.805 41.9013 124.973 41.3173 124.973 40.6748V30.7307C124.973 30.1028 124.747 29.5553 124.308 29.1099C123.862 28.6645 123.321 28.4455 122.685 28.4455L122.677 28.4163Z" fill="#222222"/>
<path d="M156.675 28.5242C157.64 27.0421 158.13 25.414 158.13 23.6909C158.13 21.9679 157.699 20.4128 156.851 19.0621C156.003 17.7114 154.672 16.6162 152.888 15.8204C151.119 15.0246 148.808 14.623 146.015 14.623H135.794C135.187 14.623 134.675 14.8421 134.259 15.2728C133.849 15.7036 133.637 16.222 133.637 16.8207V43.6301C133.637 44.2361 133.849 44.7472 134.259 45.1633C134.675 45.5795 135.187 45.7839 135.794 45.7839C136.401 45.7839 136.92 45.5722 137.344 45.1633C137.775 44.7472 137.995 44.2361 137.995 43.6301V33.6496H146.893C148.516 33.6496 149.788 33.9562 150.673 34.5622C151.557 35.1682 152.208 35.9421 152.603 36.8693C153.005 37.8112 153.254 38.7822 153.356 39.7532C153.458 40.7389 153.51 41.6004 153.51 42.3159V43.6301C153.51 44.2653 153.714 44.7837 154.109 45.1852C154.511 45.5868 155.045 45.7839 155.71 45.7839C156.31 45.7839 156.829 45.5722 157.246 45.1633C157.662 44.7472 157.867 44.2361 157.867 43.6301V41.615C157.867 41.0017 157.809 40.1913 157.692 39.2057C157.575 38.22 157.326 37.1833 156.96 36.1246C156.588 35.0587 156.025 34.0876 155.279 33.2407C154.635 32.5106 153.795 31.963 152.771 31.6126C154.482 30.9263 155.791 29.8895 156.675 28.5315V28.5242ZM153.773 23.9976C153.773 25.8155 153.064 27.1589 151.601 28.0935C150.132 29.0353 148.165 29.5099 145.752 29.5099H137.995V18.7481H145.533C147.668 18.7481 149.357 18.9745 150.556 19.4125C151.74 19.8506 152.581 20.4639 153.049 21.2451C153.524 22.0336 153.765 22.9535 153.765 23.9976H153.773Z" fill="#222222"/>
<path d="M187.909 16.2147C185.614 14.864 182.85 14.1777 179.699 14.1777C176.547 14.1777 173.791 14.864 171.488 16.2147C169.185 17.5727 167.379 19.4637 166.114 21.8511C164.849 24.2313 164.177 26.9984 164.118 30.0867C164.177 33.1678 164.849 35.9349 166.114 38.315C167.379 40.7024 169.192 42.5934 171.488 43.9514C173.784 45.3021 176.547 45.9884 179.699 45.9884C182.85 45.9884 185.606 45.3021 187.909 43.9514C190.212 42.6007 192.018 40.7024 193.283 38.315C194.548 35.9349 195.221 33.1678 195.279 30.0794C195.221 26.9984 194.548 24.2313 193.283 21.8511C192.018 19.4637 190.205 17.5727 187.909 16.2147ZM179.706 41.9071C177.322 41.9071 175.275 41.3814 173.616 40.3374C171.956 39.2933 170.669 37.8696 169.799 36.0955C168.922 34.3213 168.483 32.2989 168.483 30.0867C168.483 27.8745 168.929 25.8521 169.799 24.078C170.669 22.3111 171.956 20.8801 173.616 19.836C175.275 18.792 177.322 18.2663 179.706 18.2663C182.089 18.2663 184.137 18.792 185.796 19.836C187.456 20.8801 188.736 22.3038 189.613 24.078C190.49 25.8521 190.929 27.8745 190.929 30.0867C190.929 32.2989 190.483 34.3213 189.613 36.0955C188.743 37.8696 187.456 39.2933 185.796 40.3374C184.137 41.3814 182.089 41.9071 179.706 41.9071Z" fill="#222222"/>
<path d="M225.811 14.3984C225.205 14.3984 224.693 14.6175 224.276 15.0482C223.867 15.479 223.655 15.9974 223.655 16.5961V34.031C223.655 35.7978 223.245 37.2872 222.434 38.4627C221.622 39.6455 220.562 40.5362 219.282 41.113C216.709 42.2811 213.755 42.2811 211.189 41.113C209.909 40.5289 208.849 39.6382 208.038 38.4627C207.226 37.2872 206.817 35.7978 206.817 34.031V16.5961C206.817 15.9974 206.597 15.4717 206.173 15.0409C205.742 14.6102 205.223 14.3984 204.616 14.3984C204.009 14.3984 203.497 14.6175 203.08 15.0482C202.671 15.479 202.459 15.9974 202.459 16.5961V33.8995C202.459 35.9584 202.839 37.7764 203.6 39.3023C204.353 40.8209 205.369 42.0986 206.612 43.0842C207.855 44.0699 209.244 44.8146 210.75 45.2819C212.256 45.7491 213.762 45.9901 215.239 45.9901C216.716 45.9901 218.222 45.7491 219.721 45.2819C221.227 44.8073 222.624 44.0699 223.859 43.0842C225.102 42.0913 226.119 40.8209 226.872 39.3023C227.625 37.7837 228.012 35.9657 228.012 33.8995V16.5961C228.012 15.9901 227.793 15.4717 227.369 15.0409C226.945 14.6102 226.418 14.3984 225.811 14.3984Z" fill="#222222"/>
<path d="M261.915 14.3984C261.308 14.3984 260.796 14.6175 260.38 15.0482C259.97 15.479 259.758 15.9974 259.758 16.5961V39.6674L243.198 15.7856C242.891 15.3549 242.518 15.019 242.087 14.7708C241.648 14.5226 241.165 14.3984 240.639 14.3984H240.069C239.228 14.3984 238.511 14.7051 237.919 15.3111C237.334 15.9098 237.034 16.6399 237.034 17.4722V43.6245C237.034 44.2305 237.246 44.7416 237.656 45.1578C238.073 45.5739 238.584 45.7783 239.191 45.7783C239.798 45.7783 240.317 45.5666 240.741 45.1578C241.173 44.7416 241.392 44.2305 241.392 43.6245V20.5094L258.04 44.5226C258.318 44.8949 258.676 45.1943 259.107 45.4279C259.539 45.6615 260.014 45.7783 260.511 45.7783H261.038C261.871 45.7783 262.602 45.479 263.202 44.8949C263.809 44.3035 264.116 43.588 264.116 42.7484V16.5961C264.116 15.9974 263.896 15.4717 263.472 15.0409C263.041 14.6102 262.522 14.3984 261.915 14.3984Z" fill="#222222"/>
<path d="M299.042 24.5525C298.406 22.7272 297.426 21.048 296.132 19.5659C294.831 18.0764 293.186 16.8718 291.248 15.9737C289.304 15.0757 286.971 14.623 284.332 14.623H275.514C274.907 14.623 274.396 14.8421 273.979 15.2728C273.569 15.7036 273.357 16.222 273.357 16.8207V43.4111C273.357 44.0171 273.569 44.5281 273.979 44.9443C274.388 45.3605 274.907 45.5649 275.514 45.5649H284.332C286.979 45.5649 289.311 45.1122 291.248 44.2142C293.193 43.3162 294.838 42.1115 296.132 40.6221C297.426 39.14 298.406 37.4607 299.042 35.6355C299.678 33.8175 299.993 31.9557 299.993 30.1013C299.993 28.2468 299.671 26.385 299.042 24.5671V24.5525ZM295.686 30.0867C295.686 32.3208 295.196 34.3213 294.239 36.0224C293.281 37.7236 291.906 39.067 290.144 40.0234C288.382 40.9798 286.262 41.469 283.849 41.469H277.715V18.7043H283.849C286.262 18.7043 288.382 19.1935 290.144 20.1499C291.906 21.1064 293.281 22.4571 294.239 24.1509C295.196 25.8521 295.686 27.8525 295.686 30.0867Z" fill="#222222"/>
<path d="M24.8879 0L49.8928 14.7919C49.8781 14.9817 49.8928 15.1862 49.8928 15.3614C49.8928 17.9898 50.2437 23.0056 49.1251 25.2178C49.0227 25.4222 48.8984 25.6048 48.7595 25.7873C47.3557 26.9409 45.6522 27.6929 44.0802 28.5909C44.0802 28.5909 43.9706 28.6493 44.1899 28.7515L44.2118 28.7661C47.0048 30.4746 49.4175 31.9348 49.8855 35.5415V45.3614L24.727 59.9927V48.4132L40.2856 39.433C40.8778 36.4541 38.1726 33.7235 35.1896 34.1324C34.6924 34.1981 31.9945 35.8262 31.3292 36.1986C29.1797 37.4033 26.84 38.367 24.7344 39.6447V28.6201L39.7738 20.3918L24.9025 11.6452L10.0312 20.2312V39.7542L24.7344 48.4205V60L0.0292455 45.4417L0 14.8795L24.8879 0Z" fill="#129E7B"/>
<path d="M24.7417 48.4196V59.9991V48.4196ZM49.8928 14.791C49.8782 14.9808 49.8928 15.1853 49.8928 15.3605C49.8928 17.9889 50.2437 23.0047 49.1251 25.2169C49.0227 25.4213 48.8984 25.6039 48.7595 25.7864C47.3557 26.94 45.6522 27.692 44.0802 28.59C44.0802 28.59 43.9706 28.6484 44.1899 28.7506L44.2118 28.7652C47.0048 30.4737 49.4175 31.9339 49.8855 35.5406V45.3605L24.7271 59.9918V48.4123L40.2856 39.432C40.8779 36.4532 38.1727 33.7226 35.1896 34.1315C34.6924 34.1972 31.9945 35.8253 31.3292 36.1977C29.1797 37.4024 26.84 38.3661 24.7344 39.6438V28.6192L49.8928 14.791Z" fill="#0B6F52"/>
<path d="M10.0385 20.2306V39.7536L24.7417 48.4199V59.9994L0.0292455 45.4411L0 14.8789L10.0385 20.2306Z" fill="#4AB896"/>
<path d="M24.7416 28.6195V39.6441L15.0321 34.2486L14.9736 23.4941L24.7416 28.6195Z" fill="#72C3A9"/>
</g>
<defs>
<clipPath id="clip0_532_2156">
<rect width="300" height="60" fill="white"/>
</clipPath>
</defs>
</svg>
