<svg width="161" height="32" viewBox="0 0 161 32" fill="none" xmlns="http://www.w3.org/2000/svg">
<g clip-path="url(#clip0_715_1348)">
<path d="M48.8352 17.2694C48.4998 16.6853 48.0475 16.1947 47.4899 15.8092C47.4119 15.7547 47.3339 15.7041 47.2559 15.6534C47.4041 15.5055 47.5445 15.3497 47.6809 15.1784C48.2347 14.4853 48.5193 13.5819 48.5193 12.4955C48.5193 11.0781 48.0046 9.90995 46.9946 9.02214C46.0159 8.16549 44.6121 7.72937 42.8223 7.72937H37.7336C37.2228 7.72937 36.7665 7.92017 36.4156 8.2862C36.0724 8.64054 35.8931 9.09223 35.8931 9.58676V22.6547C35.8931 23.157 36.0802 23.6087 36.4273 23.9591C36.7782 24.3096 37.2267 24.4926 37.7336 24.4926H42.951C44.4015 24.4926 45.6026 24.2901 46.5189 23.8929C47.5016 23.4685 48.2347 22.8455 48.6948 22.0433C49.1354 21.2762 49.3577 20.3884 49.3577 19.4033C49.3577 18.5933 49.1822 17.873 48.8313 17.2694H48.8352ZM39.5936 14.2322V11.2962H42.6702C43.454 11.2962 44.0467 11.4402 44.4405 11.7284C44.7681 11.9698 44.9046 12.2424 44.9046 12.6435C44.9046 12.955 44.8383 13.2353 44.7057 13.4806C44.6004 13.6753 44.3899 13.8428 44.074 13.9752C43.8049 14.092 43.2785 14.2283 42.3037 14.2283H39.5936V14.2322ZM45.7234 19.3176C45.7234 19.6408 45.6494 19.9211 45.509 20.1548C45.3842 20.3573 45.1307 20.5325 44.7681 20.6688C44.4561 20.7856 43.8556 20.9258 42.756 20.9258H39.5936V17.7328H42.7755C43.8283 17.7328 44.655 17.8924 45.1619 18.2C45.4388 18.3675 45.7234 18.6323 45.7234 19.3176Z" fill="#FAFAFA"/>
<path d="M65.743 15.155H61.1339C60.8415 15.155 60.5919 15.2601 60.3852 15.4626C60.1786 15.669 60.0772 15.9182 60.0772 16.2103C60.0772 16.5023 60.1825 16.7515 60.3852 16.9579C60.588 17.1643 60.8415 17.2655 61.1339 17.2655H64.8968V21.3385C64.386 21.6189 63.7972 21.8525 63.1421 22.0394C62.4675 22.2302 61.7149 22.3276 60.8999 22.3276C59.5819 22.3276 58.4433 22.0472 57.5114 21.4982C56.5794 20.9491 55.8619 20.1976 55.3745 19.2592C54.8832 18.3207 54.6375 17.246 54.6375 16.0701C54.6375 14.7228 54.9144 13.5741 55.4564 12.6512C55.9984 11.7284 56.7393 11.0197 57.6634 10.5408C58.5876 10.0579 59.6404 9.81649 60.7869 9.81649C61.6759 9.81649 62.4948 9.93331 63.2123 10.163C63.9337 10.3928 64.6434 10.7121 65.3258 11.117C65.4934 11.2027 65.6728 11.2455 65.86 11.2455C66.1992 11.2455 66.4683 11.1365 66.6594 10.9224C66.8465 10.7121 66.9401 10.4629 66.9401 10.1903C66.9401 9.95278 66.8816 9.75419 66.7685 9.59454C66.6594 9.44268 66.5424 9.33365 66.4254 9.26745C65.6884 8.80018 64.85 8.39522 63.9376 8.06813C63.0173 7.73715 61.8787 7.57361 60.549 7.57361C59.4026 7.57361 58.3185 7.77609 57.332 8.17716C56.3416 8.57823 55.4603 9.15842 54.7155 9.90605C53.9707 10.6498 53.3741 11.5571 52.953 12.6006C52.5279 13.6442 52.3135 14.8162 52.3135 16.0818C52.3135 17.725 52.6644 19.2008 53.3546 20.4624C54.0448 21.7279 55.0275 22.7325 56.2675 23.4568C57.5075 24.1772 58.9736 24.5432 60.6231 24.5432C61.6408 24.5432 62.6118 24.4186 63.5164 24.1772C64.4133 23.9357 65.2595 23.6164 66.0237 23.2271C66.3045 23.0947 66.5346 22.8922 66.7061 22.6196C66.8777 22.347 66.9674 22.0355 66.9674 21.6929V16.3894C66.9674 16.0545 66.8465 15.7625 66.6126 15.5249C66.3747 15.2874 66.0861 15.1706 65.7469 15.1706L65.743 15.155Z" fill="#FAFAFA"/>
<path d="M83.8751 15.2134C84.3898 14.4229 84.6511 13.5546 84.6511 12.6357C84.6511 11.7167 84.421 10.8873 83.9687 10.1669C83.5164 9.44655 82.8067 8.86247 81.8552 8.43804C80.9116 8.0136 79.6794 7.79944 78.1898 7.79944H72.7385C72.4148 7.79944 72.1419 7.91625 71.9196 8.14599C71.7012 8.37573 71.5881 8.6522 71.5881 8.9715V23.2699C71.5881 23.5931 71.7012 23.8656 71.9196 24.0876C72.1419 24.3095 72.4148 24.4186 72.7385 24.4186C73.0621 24.4186 73.339 24.3056 73.5651 24.0876C73.7952 23.8656 73.9122 23.5931 73.9122 23.2699V17.9469H78.6577C79.5234 17.9469 80.2019 18.1105 80.6737 18.4337C81.1456 18.7568 81.4926 19.1696 81.7032 19.6641C81.9176 20.1664 82.0502 20.6843 82.1048 21.2022C82.1594 21.7279 82.1867 22.1874 82.1867 22.569V23.2699C82.1867 23.6086 82.2959 23.8851 82.5064 24.0993C82.7209 24.3134 83.0056 24.4186 83.3604 24.4186C83.6802 24.4186 83.957 24.3056 84.1793 24.0876C84.4016 23.8656 84.5107 23.5931 84.5107 23.2699V22.1952C84.5107 21.8681 84.4795 21.4358 84.4171 20.9102C84.3548 20.3845 84.2222 19.8316 84.0272 19.2669C83.8283 18.6984 83.5281 18.1806 83.1303 17.7289C82.7872 17.3395 82.3388 17.0474 81.7929 16.8605C82.7053 16.4945 83.4033 15.9416 83.8751 15.2173V15.2134ZM82.3271 12.7992C82.3271 13.7688 81.9488 14.4852 81.169 14.9837C80.3852 15.486 79.3362 15.7391 78.0494 15.7391H73.9122V9.99949H77.9325C79.0711 9.99949 79.9718 10.1202 80.6113 10.3538C81.243 10.5875 81.6915 10.9146 81.941 11.3312C82.1945 11.7517 82.3232 12.2424 82.3232 12.7992H82.3271Z" fill="#FAFAFA"/>
<path d="M100.533 8.64835C99.309 7.92798 97.835 7.56195 96.1543 7.56195C94.4737 7.56195 93.0036 7.92798 91.7753 8.64835C90.547 9.37261 89.5839 10.3811 88.9093 11.6544C88.2347 12.9238 87.8759 14.3996 87.8447 16.0467C87.8759 17.69 88.2347 19.1657 88.9093 20.4352C89.5839 21.7085 90.5509 22.717 91.7753 23.4412C92.9997 24.1616 94.4737 24.5276 96.1543 24.5276C97.835 24.5276 99.3051 24.1616 100.533 23.4412C101.762 22.7209 102.725 21.7085 103.399 20.4352C104.074 19.1657 104.433 17.69 104.464 16.0428C104.433 14.3996 104.074 12.9238 103.399 11.6544C102.725 10.3811 101.758 9.37261 100.533 8.64835ZM96.1582 22.351C94.887 22.351 93.7952 22.0706 92.91 21.5138C92.0249 20.9569 91.3386 20.1976 90.8746 19.2514C90.4066 18.3052 90.1727 17.2266 90.1727 16.0467C90.1727 14.8669 90.4105 13.7883 90.8746 12.8421C91.3386 11.8997 92.0249 11.1365 92.91 10.5797C93.7952 10.0229 94.887 9.74253 96.1582 9.74253C97.4294 9.74253 98.5213 10.0229 99.4064 10.5797C100.292 11.1365 100.974 11.8959 101.442 12.8421C101.91 13.7883 102.144 14.8669 102.144 16.0467C102.144 17.2266 101.906 18.3052 101.442 19.2514C100.978 20.1976 100.292 20.9569 99.4064 21.5138C98.5213 22.0706 97.4294 22.351 96.1582 22.351Z" fill="#FAFAFA"/>
<path d="M120.748 7.67877C120.424 7.67877 120.151 7.79559 119.929 8.02533C119.711 8.25507 119.598 8.53153 119.598 8.85083V18.1494C119.598 19.0918 119.379 19.8861 118.946 20.513C118.514 21.1438 117.948 21.6189 117.266 21.9265C115.893 22.5495 114.318 22.5495 112.949 21.9265C112.267 21.615 111.701 21.14 111.268 20.513C110.836 19.8861 110.617 19.0918 110.617 18.1494V8.85083C110.617 8.53153 110.5 8.25117 110.274 8.02143C110.044 7.7917 109.767 7.67877 109.444 7.67877C109.12 7.67877 108.847 7.79559 108.625 8.02533C108.406 8.25507 108.293 8.53153 108.293 8.85083V18.0794C108.293 19.1774 108.496 20.147 108.902 20.9608C109.303 21.7708 109.845 22.4522 110.508 22.9779C111.171 23.5035 111.912 23.9007 112.715 24.1499C113.518 24.3991 114.322 24.5276 115.109 24.5276C115.897 24.5276 116.7 24.3991 117.5 24.1499C118.303 23.8968 119.048 23.5035 119.707 22.9779C120.37 22.4483 120.912 21.7708 121.313 20.9608C121.715 20.1509 121.922 19.1813 121.922 18.0794V8.85083C121.922 8.52764 121.805 8.25117 121.578 8.02143C121.352 7.7917 121.072 7.67877 120.748 7.67877Z" fill="#FAFAFA"/>
<path d="M140.003 7.67877C139.679 7.67877 139.406 7.79559 139.184 8.02533C138.966 8.25507 138.853 8.53153 138.853 8.85083V21.1555L130.021 8.41861C129.857 8.18887 129.658 8.00975 129.428 7.87736C129.194 7.74497 128.937 7.67877 128.656 7.67877H128.352C127.903 7.67877 127.521 7.84232 127.205 8.16551C126.893 8.48481 126.733 8.8742 126.733 9.3181V23.266C126.733 23.5892 126.846 23.8618 127.065 24.0837C127.287 24.3057 127.56 24.4147 127.884 24.4147C128.207 24.4147 128.484 24.3018 128.71 24.0837C128.94 23.8618 129.057 23.5892 129.057 23.266V10.938L137.936 23.745C138.085 23.9436 138.276 24.1032 138.506 24.2278C138.736 24.3524 138.989 24.4147 139.254 24.4147H139.535C139.98 24.4147 140.37 24.2551 140.689 23.9436C141.013 23.6282 141.177 23.2466 141.177 22.7988V8.85083C141.177 8.53153 141.06 8.25117 140.834 8.02143C140.604 7.7917 140.327 7.67877 140.003 7.67877Z" fill="#FAFAFA"/>
<path d="M159.804 13.0951C159.465 12.1217 158.942 11.2261 158.252 10.4356C157.558 9.64125 156.681 8.99876 155.647 8.51981C154.61 8.04086 153.366 7.79944 151.958 7.79944H147.256C146.932 7.79944 146.659 7.91625 146.437 8.14599C146.219 8.37573 146.105 8.6522 146.105 8.9715V23.1531C146.105 23.4762 146.219 23.7488 146.437 23.9708C146.655 24.1927 146.932 24.3018 147.256 24.3018H151.958C153.37 24.3018 154.614 24.0603 155.647 23.5814C156.685 23.1024 157.562 22.4599 158.252 21.6656C158.942 20.8751 159.465 19.9795 159.804 19.0061C160.143 18.0365 160.311 17.0435 160.311 16.0545C160.311 15.0654 160.139 14.0725 159.804 13.1029V13.0951ZM158.014 16.0467C158.014 17.2382 157.753 18.3052 157.242 19.2124C156.731 20.1197 155.998 20.8362 155.058 21.3463C154.119 21.8564 152.988 22.1173 151.701 22.1173H148.43V9.97612H151.701C152.988 9.97612 154.119 10.237 155.058 10.7471C155.998 11.2572 156.731 11.9776 157.242 12.881C157.753 13.7882 158.014 14.8552 158.014 16.0467Z" fill="#FAFAFA"/>
<path d="M13.5885 0L26.9244 7.88902C26.9166 7.99027 26.9244 8.09929 26.9244 8.19275C26.9244 9.59455 27.1116 12.2697 26.515 13.4495C26.4604 13.5585 26.3941 13.6559 26.32 13.7532C25.5713 14.3685 24.6628 14.7695 23.8244 15.2485C23.8244 15.2485 23.7659 15.2796 23.8829 15.3341L23.8946 15.3419C25.3842 16.2531 26.671 17.0319 26.9205 18.9555V24.1927L13.5027 31.9961V25.8204L21.8006 21.0309C22.1165 19.4422 20.6737 17.9859 19.0827 18.2039C18.8176 18.239 17.3787 19.1073 17.0238 19.3059C15.8774 19.9484 14.6296 20.4624 13.5066 21.1438V15.2641L21.5277 10.8756L13.5963 6.21076L5.66491 10.79V21.2022L13.5066 25.8243V32L0.330539 24.2356L0.314941 7.93575L13.5885 0Z" fill="#129E7B"/>
<path d="M13.5105 25.8243V32V25.8243ZM26.9244 7.88904C26.9166 7.99028 26.9244 8.09931 26.9244 8.19276C26.9244 9.59456 27.1116 12.2697 26.515 13.4495C26.4604 13.5585 26.3941 13.6559 26.32 13.7532C25.5713 14.3685 24.6628 14.7695 23.8244 15.2485C23.8244 15.2485 23.7659 15.2796 23.8829 15.3342L23.8946 15.3419C25.3841 16.2531 26.6709 17.0319 26.9205 18.9555V24.1928L13.5027 31.9961V25.8204L21.8006 21.0309C22.1164 19.4422 20.6737 17.9859 19.0827 18.204C18.8176 18.239 17.3787 19.1073 17.0238 19.3059C15.8774 19.9484 14.6296 20.4624 13.5066 21.1438V15.2641L26.9244 7.88904Z" fill="#0B6F52"/>
<path d="M5.66881 10.79V21.2022L13.5105 25.8243V32L0.330539 24.2356L0.314941 7.93573L5.66881 10.79Z" fill="#4AB896"/>
<path d="M13.5104 15.264V21.1438L8.33198 18.2662L8.30078 12.5305L13.5104 15.264Z" fill="#72C3A9"/>
</g>
<defs>
<clipPath id="clip0_715_1348">
<rect width="160" height="32" fill="white" transform="translate(0.314941)"/>
</clipPath>
</defs>
</svg>
