<svg width="161" height="32" viewBox="0 0 161 32" fill="none" xmlns="http://www.w3.org/2000/svg">
<g clip-path="url(#clip0_1085_3770)">
<path d="M48.8356 17.2695C48.5003 16.6854 48.048 16.1948 47.4904 15.8093C47.4124 15.7548 47.3344 15.7042 47.2564 15.6536C47.4046 15.5056 47.5449 15.3498 47.6814 15.1785C48.2351 14.4854 48.5198 13.582 48.5198 12.4956C48.5198 11.0782 48.0051 9.91007 46.9951 9.02226C46.0164 8.16561 44.6126 7.72949 42.8228 7.72949H37.7341C37.2232 7.72949 36.767 7.92029 36.4161 8.28632C36.0729 8.64066 35.8936 9.09235 35.8936 9.58688V22.6548C35.8936 23.1571 36.0807 23.6088 36.4278 23.9592C36.7787 24.3097 37.2271 24.4927 37.7341 24.4927H42.9515C44.402 24.4927 45.603 24.2902 46.5194 23.893C47.5021 23.4686 48.2351 22.8456 48.6953 22.0434C49.1359 21.2763 49.3582 20.3885 49.3582 19.4034C49.3582 18.5935 49.1827 17.8731 48.8317 17.2695H48.8356ZM39.5941 14.2323V11.2963H42.6707C43.4545 11.2963 44.0472 11.4404 44.441 11.7285C44.7686 11.9699 44.9051 12.2425 44.9051 12.6436C44.9051 12.9551 44.8388 13.2355 44.7062 13.4808C44.6009 13.6755 44.3903 13.8429 44.0745 13.9753C43.8054 14.0921 43.279 14.2284 42.3042 14.2284H39.5941V14.2323ZM45.7239 19.3177C45.7239 19.6409 45.6498 19.9213 45.5095 20.1549C45.3847 20.3574 45.1312 20.5326 44.7686 20.6689C44.4566 20.7857 43.8561 20.9259 42.7565 20.9259H39.5941V17.7329H42.776C43.8288 17.7329 44.6555 17.8925 45.1624 18.2002C45.4393 18.3676 45.7239 18.6324 45.7239 19.3177Z" fill="#222222"/>
<path d="M65.743 15.1551H61.1339C60.8415 15.1551 60.5919 15.2603 60.3852 15.4628C60.1786 15.6691 60.0772 15.9183 60.0772 16.2104C60.0772 16.5024 60.1825 16.7516 60.3852 16.958C60.588 17.1644 60.8415 17.2656 61.1339 17.2656H64.8968V21.3386C64.386 21.619 63.7972 21.8526 63.1421 22.0395C62.4675 22.2303 61.7149 22.3277 60.8999 22.3277C59.5819 22.3277 58.4433 22.0473 57.5114 21.4983C56.5794 20.9492 55.8619 20.1977 55.3745 19.2593C54.8832 18.3209 54.6375 17.2462 54.6375 16.0702C54.6375 14.7229 54.9144 13.5742 55.4564 12.6514C55.9984 11.7285 56.7393 11.0198 57.6634 10.5409C58.5876 10.058 59.6404 9.81661 60.7869 9.81661C61.6759 9.81661 62.4948 9.93343 63.2123 10.1632C63.9337 10.3929 64.6434 10.7122 65.3258 11.1172C65.4934 11.2028 65.6728 11.2457 65.86 11.2457C66.1992 11.2457 66.4683 11.1366 66.6594 10.9225C66.8465 10.7122 66.9401 10.463 66.9401 10.1904C66.9401 9.9529 66.8816 9.75431 66.7685 9.59466C66.6594 9.4428 66.5424 9.33377 66.4254 9.26757C65.6884 8.80031 64.85 8.39534 63.9376 8.06825C63.0173 7.73727 61.8787 7.57373 60.549 7.57373C59.4026 7.57373 58.3185 7.77621 57.332 8.17728C56.3416 8.57835 55.4603 9.15854 54.7155 9.90617C53.9707 10.6499 53.3741 11.5572 52.953 12.6007C52.5279 13.6443 52.3135 14.8164 52.3135 16.0819C52.3135 17.7251 52.6644 19.2009 53.3546 20.4625C54.0448 21.728 55.0275 22.7326 56.2675 23.4569C57.5075 24.1773 58.9736 24.5433 60.6231 24.5433C61.6408 24.5433 62.6118 24.4187 63.5164 24.1773C64.4133 23.9359 65.2595 23.6166 66.0237 23.2272C66.3045 23.0948 66.5346 22.8923 66.7061 22.6197C66.8777 22.3472 66.9674 22.0356 66.9674 21.693V16.3895C66.9674 16.0546 66.8465 15.7626 66.6126 15.5251C66.3747 15.2875 66.0861 15.1707 65.7469 15.1707L65.743 15.1551Z" fill="#222222"/>
<path d="M83.8759 15.2133C84.3906 14.4228 84.6518 13.5545 84.6518 12.6355C84.6518 11.7166 84.4218 10.8872 83.9694 10.1668C83.5171 9.44643 82.8074 8.86235 81.856 8.43791C80.9123 8.01348 79.6801 7.79932 78.1905 7.79932H72.7392C72.4155 7.79932 72.1426 7.91613 71.9203 8.14587C71.702 8.37561 71.5889 8.65208 71.5889 8.97138V23.2697C71.5889 23.5929 71.702 23.8655 71.9203 24.0875C72.1426 24.3094 72.4155 24.4184 72.7392 24.4184C73.0628 24.4184 73.3397 24.3055 73.5659 24.0875C73.7959 23.8655 73.9129 23.5929 73.9129 23.2697V17.9468H78.6585C79.5241 17.9468 80.2026 18.1103 80.6745 18.4335C81.1463 18.7567 81.4933 19.1695 81.7039 19.664C81.9184 20.1663 82.0509 20.6842 82.1055 21.2021C82.1601 21.7278 82.1874 22.1872 82.1874 22.5688V23.2697C82.1874 23.6085 82.2966 23.885 82.5072 24.0991C82.7216 24.3133 83.0063 24.4184 83.3611 24.4184C83.6809 24.4184 83.9578 24.3055 84.18 24.0875C84.4023 23.8655 84.5115 23.5929 84.5115 23.2697V22.195C84.5115 21.8679 84.4803 21.4357 84.4179 20.91C84.3555 20.3844 84.2229 19.8314 84.0279 19.2668C83.8291 18.6983 83.5288 18.1804 83.1311 17.7287C82.7879 17.3393 82.3395 17.0473 81.7936 16.8604C82.706 16.4944 83.404 15.9414 83.8759 15.2172V15.2133ZM82.3278 12.7991C82.3278 13.7687 81.9496 14.4851 81.1697 14.9835C80.3859 15.4859 79.337 15.739 78.0502 15.739H73.9129V9.99937H77.9332C79.0718 9.99937 79.9726 10.1201 80.6121 10.3537C81.2438 10.5873 81.6922 10.9144 81.9418 11.3311C82.1952 11.7516 82.3239 12.2422 82.3239 12.7991H82.3278Z" fill="#222222"/>
<path d="M100.533 8.64841C99.309 7.92804 97.835 7.56201 96.1543 7.56201C94.4737 7.56201 93.0036 7.92804 91.7753 8.64841C90.547 9.37267 89.5839 10.3812 88.9093 11.6545C88.2347 12.9239 87.8759 14.3997 87.8447 16.0468C87.8759 17.69 88.2347 19.1658 88.9093 20.4352C89.5839 21.7085 90.5509 22.717 91.7753 23.4413C92.9997 24.1617 94.4737 24.5277 96.1543 24.5277C97.835 24.5277 99.3051 24.1617 100.533 23.4413C101.762 22.7209 102.725 21.7085 103.399 20.4352C104.074 19.1658 104.433 17.69 104.464 16.0429C104.433 14.3997 104.074 12.9239 103.399 11.6545C102.725 10.3812 101.758 9.37267 100.533 8.64841ZM96.1582 22.351C94.887 22.351 93.7952 22.0707 92.91 21.5138C92.0249 20.957 91.3386 20.1977 90.8746 19.2515C90.4066 18.3053 90.1727 17.2267 90.1727 16.0468C90.1727 14.867 90.4105 13.7883 90.8746 12.8421C91.3386 11.8998 92.0249 11.1366 92.91 10.5798C93.7952 10.023 94.887 9.74259 96.1582 9.74259C97.4294 9.74259 98.5213 10.023 99.4064 10.5798C100.292 11.1366 100.974 11.8959 101.442 12.8421C101.91 13.7883 102.144 14.867 102.144 16.0468C102.144 17.2267 101.906 18.3053 101.442 19.2515C100.978 20.1977 100.292 20.957 99.4064 21.5138C98.5213 22.0707 97.4294 22.351 96.1582 22.351Z" fill="#222222"/>
<path d="M120.749 7.67871C120.425 7.67871 120.152 7.79553 119.93 8.02527C119.711 8.25501 119.598 8.53147 119.598 8.85077V18.1494C119.598 19.0917 119.38 19.8861 118.947 20.513C118.514 21.1438 117.949 21.6188 117.266 21.9265C115.894 22.5495 114.319 22.5495 112.95 21.9265C112.267 21.6149 111.702 21.1399 111.269 20.513C110.836 19.8861 110.618 19.0917 110.618 18.1494V8.85077C110.618 8.53147 110.501 8.25111 110.275 8.02137C110.045 7.79163 109.768 7.67871 109.444 7.67871C109.121 7.67871 108.848 7.79553 108.625 8.02527C108.407 8.25501 108.294 8.53147 108.294 8.85077V18.0793C108.294 19.1774 108.497 20.147 108.902 20.9608C109.304 21.7707 109.846 22.4521 110.509 22.9778C111.172 23.5035 111.913 23.9007 112.716 24.1499C113.519 24.3991 114.322 24.5276 115.11 24.5276C115.898 24.5276 116.701 24.3991 117.5 24.1499C118.304 23.8968 119.048 23.5035 119.707 22.9778C120.37 22.4482 120.912 21.7707 121.314 20.9608C121.716 20.1508 121.922 19.1813 121.922 18.0793V8.85077C121.922 8.52758 121.805 8.25111 121.579 8.02137C121.353 7.79163 121.072 7.67871 120.749 7.67871Z" fill="#222222"/>
<path d="M140.003 7.67871C139.679 7.67871 139.406 7.79553 139.184 8.02527C138.966 8.25501 138.853 8.53147 138.853 8.85077V21.1555L130.021 8.41855C129.857 8.18881 129.658 8.00969 129.428 7.8773C129.194 7.74491 128.937 7.67871 128.656 7.67871H128.352C127.903 7.67871 127.521 7.84225 127.205 8.16545C126.893 8.48475 126.733 8.87414 126.733 9.31804V23.266C126.733 23.5892 126.846 23.8617 127.065 24.0837C127.287 24.3056 127.56 24.4147 127.884 24.4147C128.207 24.4147 128.484 24.3017 128.71 24.0837C128.94 23.8617 129.057 23.5892 129.057 23.266V10.9379L137.936 23.7449C138.085 23.9435 138.276 24.1031 138.506 24.2278C138.736 24.3524 138.989 24.4147 139.254 24.4147H139.535C139.98 24.4147 140.37 24.255 140.689 23.9435C141.013 23.6281 141.177 23.2465 141.177 22.7987V8.85077C141.177 8.53147 141.06 8.25111 140.834 8.02137C140.604 7.79163 140.327 7.67871 140.003 7.67871Z" fill="#222222"/>
<path d="M159.805 13.095C159.466 12.1215 158.943 11.2259 158.253 10.4355C157.559 9.64113 156.682 8.99863 155.648 8.51969C154.611 8.04074 153.367 7.79932 151.959 7.79932H147.257C146.933 7.79932 146.66 7.91613 146.438 8.14587C146.22 8.37561 146.106 8.65208 146.106 8.97138V23.1529C146.106 23.4761 146.22 23.7487 146.438 23.9706C146.656 24.1926 146.933 24.3016 147.257 24.3016H151.959C153.371 24.3016 154.615 24.0602 155.648 23.5813C156.686 23.1023 157.563 22.4598 158.253 21.6655C158.943 20.875 159.466 19.9794 159.805 19.0059C160.144 18.0364 160.312 17.0434 160.312 16.0544C160.312 15.0653 160.14 14.0724 159.805 13.1028V13.095ZM158.015 16.0466C158.015 17.2381 157.754 18.305 157.243 19.2123C156.732 20.1196 155.999 20.8361 155.059 21.3462C154.12 21.8563 152.989 22.1172 151.702 22.1172H148.43V9.976H151.702C152.989 9.976 154.12 10.2369 155.059 10.747C155.999 11.2571 156.732 11.9775 157.243 12.8808C157.754 13.7881 158.015 14.855 158.015 16.0466Z" fill="#222222"/>
<path d="M13.589 0L26.9249 7.88902C26.9171 7.99027 26.9249 8.09929 26.9249 8.19275C26.9249 9.59455 27.1121 12.2697 26.5155 13.4495C26.4609 13.5585 26.3946 13.6559 26.3205 13.7532C25.5718 14.3685 24.6633 14.7695 23.8249 15.2485C23.8249 15.2485 23.7664 15.2796 23.8834 15.3341L23.8951 15.3419C25.3846 16.2531 26.6714 17.0319 26.921 18.9555V24.1927L13.5032 31.9961V25.8204L21.8011 21.0309C22.1169 19.4422 20.6742 17.9859 19.0832 18.2039C18.8181 18.239 17.3792 19.1073 17.0243 19.3059C15.8779 19.9484 14.6301 20.4624 13.5071 21.1438V15.2641L21.5281 10.8756L13.5968 6.21076L5.6654 10.79V21.2022L13.5071 25.8243V32L0.331027 24.2356L0.31543 7.93575L13.589 0Z" fill="#129E7B"/>
<path d="M13.5107 25.8244V32.0001V25.8244ZM26.9246 7.88916C26.9168 7.9904 26.9246 8.09943 26.9246 8.19288C26.9246 9.59468 27.1118 12.2698 26.5152 13.4496C26.4606 13.5587 26.3943 13.656 26.3202 13.7534C25.5716 14.3686 24.663 14.7697 23.8246 15.2486C23.8246 15.2486 23.7661 15.2798 23.8831 15.3343L23.8948 15.3421C25.3844 16.2532 26.6712 17.032 26.9208 18.9556V24.1929L13.5029 31.9962V25.8205L21.8008 21.031C22.1167 19.4423 20.6739 17.986 19.083 18.2041C18.8178 18.2391 17.3789 19.1075 17.0241 19.3061C15.8777 19.9485 14.6299 20.4625 13.5068 21.144V15.2642L26.9246 7.88916Z" fill="#0B6F52"/>
<path d="M5.6693 10.7898V21.202L13.511 25.8241V31.9998L0.331027 24.2354L0.31543 7.93555L5.6693 10.7898Z" fill="#4AB896"/>
<path d="M13.5114 15.2643V21.144L8.33295 18.2665L8.30176 12.5308L13.5114 15.2643Z" fill="#72C3A9"/>
</g>
<defs>
<clipPath id="clip0_1085_3770">
<rect width="160" height="32" fill="white" transform="translate(0.31543)"/>
</clipPath>
</defs>
</svg>
