<svg width="97" height="62" viewBox="0 0 97 62" fill="none" xmlns="http://www.w3.org/2000/svg">
<g clip-path="url(#clip0_1066_358)">
<g style="mix-blend-mode:multiply">
<path d="M84.0201 26.3167C82.9129 26.3167 81.8415 26.4667 80.8238 26.7446C78.2776 21.6586 73.0909 18.0856 67.0256 17.7547C64.9007 7.618 55.7825 0 44.8533 0C33.9241 0 24.1649 8.16498 22.4838 18.8355C16.3826 21.1866 12.0566 27.0269 12.0566 33.8641C12.0566 42.7746 19.3996 50 28.455 50H84.0201C90.6682 50 96.0522 44.6978 96.0522 38.1606C96.0522 31.6233 90.6637 26.3211 84.0201 26.3211V26.3167Z" fill="url(#paint0_linear_1066_358)"/>
</g>
</g>
<path d="M24.8743 47.9362C24.8743 47.0978 24.7922 46.2784 24.6353 45.4872L25.7702 44.8094C26.1807 44.5639 26.3231 44.0202 26.084 43.5934L23.276 38.5615C23.0388 38.1367 22.5133 37.9894 22.101 38.2368L20.9716 38.9108C19.7929 37.8195 18.4007 36.9717 16.8663 36.443V35.11C16.8663 34.6191 16.4813 34.2207 16.0069 34.2207H10.3926C9.91824 34.2207 9.53325 34.6191 9.53325 35.11V36.4242C7.98601 36.9472 6.57925 37.795 5.38963 38.8901L4.29852 38.2368C3.88799 37.9913 3.36069 38.1367 3.12349 38.5615L0.317285 43.5934C0.0800888 44.0183 0.220582 44.5639 0.631113 44.8094L1.71127 45.4551C1.5507 46.2557 1.46495 47.0865 1.46495 47.9381C1.46495 48.7896 1.5507 49.6185 1.71127 50.421L0.631113 51.0667C0.220582 51.3122 0.0782642 51.856 0.317285 52.2827L3.12532 57.3146C3.36251 57.7394 3.88799 57.8867 4.30035 57.6412L5.39145 56.9879C6.58108 58.083 7.98601 58.9308 9.53508 59.4538V60.768C9.53508 61.2589 9.92006 61.6573 10.3945 61.6573H16.0087C16.4831 61.6573 16.8681 61.2589 16.8681 60.768V59.4331C18.4025 58.9044 19.7947 58.0566 20.9734 56.9653L22.1028 57.6393C22.5133 57.8848 23.0406 57.7394 23.2778 57.3127L26.0859 52.2808C26.3231 51.856 26.1826 51.3103 25.772 51.0648L24.6372 50.387C24.7941 49.5958 24.8762 48.7764 24.8762 47.9381L24.8743 47.9362Z" fill="url(#paint1_linear_1066_358)" style="mix-blend-mode:multiply"/>
<path d="M6.05664 48C6.05664 51.8666 9.19007 55 13.0566 55C16.9232 55 20.0566 51.8666 20.0566 48C20.0566 44.1334 16.9232 41 13.0566 41C9.19007 41 6.05664 44.1334 6.05664 48Z" fill="white"/>
<defs>
<linearGradient id="paint0_linear_1066_358" x1="76.3652" y1="57.0627" x2="42.4741" y2="-12.762" gradientUnits="userSpaceOnUse">
<stop stop-color="#4E7AE9"/>
<stop offset="1" stop-color="#9FC2FF"/>
</linearGradient>
<linearGradient id="paint1_linear_1066_358" x1="13.2012" y1="34.2207" x2="19.9441" y2="67.097" gradientUnits="userSpaceOnUse">
<stop stop-color="#12306D"/>
<stop offset="1" stop-color="#235DD3"/>
</linearGradient>
<clipPath id="clip0_1066_358">
<rect width="84" height="50" fill="white" transform="translate(12.0566)"/>
</clipPath>
</defs>
</svg>
