<svg width="65" height="70" viewBox="0 0 65 70" fill="none" xmlns="http://www.w3.org/2000/svg">
<g clip-path="url(#clip0_519_6356)">
<path d="M49.6206 54.607H11.0215V19.4273C11.0215 8.71499 19.6791 0 30.321 0C40.9629 0 49.6206 8.71499 49.6206 19.4273V54.607ZM14.7461 50.8577H45.896V19.4273C45.896 10.7826 38.9089 3.74928 30.321 3.74928C21.7332 3.74928 14.7461 10.7826 14.7461 19.4273V50.8577Z" fill="#12306D"/>
<path d="M4.31752 24.1533H60.0068C62.3902 24.1533 64.3243 26.1012 64.3243 28.4994V64.5917C64.3243 67.5768 61.9163 70.0008 58.9508 70.0008H5.37355C2.40802 70.0008 0 67.5768 0 64.5917V28.4994C0 26.1002 1.93507 24.1533 4.31752 24.1533Z" fill="url(#paint0_linear_519_6356)"/>
<path d="M36.6689 44.8418C36.6689 42.3367 34.6512 40.3047 32.1626 40.3047C29.6739 40.3047 27.6562 42.3357 27.6562 44.8418C27.6562 47.3479 29.6739 49.378 32.1626 49.378C34.6512 49.378 36.6689 47.347 36.6689 44.8418Z" fill="#12306D"/>
<path d="M32.1626 53.7094C31.3711 53.7094 30.729 53.0631 30.729 52.2663V45.0488H33.5972V52.2663C33.5972 53.064 32.9551 53.7094 32.1636 53.7094H32.1626Z" fill="#12306D"/>
</g>
<defs>
<linearGradient id="paint0_linear_519_6356" x1="49.2479" y1="76.4769" x2="14.88" y2="17.3411" gradientUnits="userSpaceOnUse">
<stop stop-color="#4E7AE9"/>
<stop offset="1" stop-color="#9FC2FF"/>
</linearGradient>
<clipPath id="clip0_519_6356">
<rect width="64.3243" height="70" fill="white"/>
</clipPath>
</defs>
</svg>
