<svg width="46" height="47" viewBox="0 0 46 47" fill="none" xmlns="http://www.w3.org/2000/svg">
<g clip-path="url(#clip0_519_6992)">
<path d="M34.5 19.666H32.085C31.368 16.8888 29.8863 14.3683 27.8083 12.3911C25.7303 10.4139 23.1394 9.05917 20.33 8.48088C17.5205 7.90259 14.6052 8.12393 11.9153 9.11973C9.22537 10.1155 6.86869 11.8459 5.11305 14.1142C3.35741 16.3824 2.2732 19.0977 1.98362 21.9514C1.69405 24.805 2.21071 27.6827 3.47492 30.2574C4.73912 32.8322 6.70017 35.0006 9.13523 36.5165C11.5703 38.0324 14.3817 38.8348 17.25 38.8327H34.5C37.0417 38.8327 39.4793 37.823 41.2765 36.0258C43.0737 34.2286 44.0834 31.791 44.0834 29.2493C44.0834 26.7077 43.0737 24.2701 41.2765 22.4729C39.4793 20.6757 37.0417 19.666 34.5 19.666Z" stroke="#00B487" stroke-width="4" stroke-linecap="round" stroke-linejoin="round"/>
</g>
<defs>
<clipPath id="clip0_519_6992">
<rect width="46" height="46" fill="white" transform="translate(0 0.5)"/>
</clipPath>
</defs>
</svg>
