<svg width="28" height="28" viewBox="0 0 28 28" fill="none" xmlns="http://www.w3.org/2000/svg">
<path d="M23.3298 5.81543C23.3258 5.80236 23.3155 5.77711 23.2922 5.73909C23.2427 5.65848 23.1417 5.53716 22.9527 5.38818C22.5675 5.08461 21.9378 4.75937 21.0557 4.46533C19.3037 3.88132 16.8089 3.50033 13.9999 3.50033C11.1909 3.50033 8.69614 3.88132 6.94409 4.46533C6.06199 4.75937 5.43232 5.08461 5.04712 5.38818C4.85814 5.53716 4.75709 5.65848 4.7076 5.73909C4.68429 5.77711 4.67402 5.80236 4.67 5.81543C4.66632 5.82751 4.66659 5.83281 4.66659 5.83366C4.66659 5.83451 4.66632 5.83981 4.67 5.85189C4.67402 5.86495 4.68429 5.89021 4.7076 5.92822C4.75709 6.00884 4.85814 6.13016 5.04712 6.27913C5.43232 6.58271 6.06199 6.90795 6.94409 7.20199C8.69614 7.786 11.1909 8.16699 13.9999 8.16699C16.8089 8.16699 19.3037 7.786 21.0557 7.20199C21.9378 6.90795 22.5675 6.58271 22.9527 6.27913C23.1417 6.13016 23.2427 6.00884 23.2922 5.92822C23.3155 5.89021 23.3258 5.86495 23.3298 5.85189C23.3335 5.83981 23.3333 5.83451 23.3333 5.83366C23.3333 5.83281 23.3335 5.82751 23.3298 5.81543ZM25.6666 5.83366C25.6666 6.82745 25.0616 7.58879 24.3974 8.1123C23.72 8.64613 22.8119 9.07638 21.794 9.41569C19.7458 10.0984 16.9899 10.5003 13.9999 10.5003C11.0099 10.5003 8.25401 10.0984 6.20581 9.41569C5.18797 9.07638 4.27982 8.64613 3.60246 8.1123C2.93828 7.58879 2.33325 6.82745 2.33325 5.83366C2.33325 4.83987 2.93828 4.07853 3.60246 3.55501C4.27982 3.02119 5.18797 2.59094 6.20581 2.25163C8.25401 1.56889 11.0099 1.16699 13.9999 1.16699C16.9899 1.16699 19.7458 1.56889 21.794 2.25163C22.8119 2.59094 23.72 3.02119 24.3974 3.55501C25.0616 4.07853 25.6666 4.83987 25.6666 5.83366Z" fill="#00B487"/>
<path d="M2.33325 13.9997C2.33325 13.3553 2.85559 12.833 3.49992 12.833C4.14425 12.833 4.66659 13.3553 4.66659 13.9997C4.66659 14.0018 4.66631 14.0078 4.67 14.0202C4.67413 14.0338 4.68427 14.0605 4.7076 14.0988C4.75677 14.1795 4.85735 14.3011 5.04484 14.4497C5.42679 14.7523 6.05252 15.0756 6.93156 15.3691C8.67834 15.9523 11.1728 16.333 13.9999 16.333C16.827 16.333 19.3215 15.9523 21.0683 15.3691C21.9473 15.0756 22.5731 14.7523 22.955 14.4497C23.1425 14.3011 23.2431 14.1795 23.2922 14.0988C23.3156 14.0605 23.3257 14.0338 23.3298 14.0202C23.3335 14.0078 23.3333 14.0018 23.3333 13.9997C23.3333 13.3553 23.8556 12.833 24.4999 12.833C25.1443 12.833 25.6666 13.3553 25.6666 13.9997C25.6666 14.9906 25.0679 15.7524 24.4042 16.2783C23.7289 16.8134 22.8229 17.2435 21.8066 17.5828C19.7617 18.2654 17.006 18.6663 13.9999 18.6663C10.9939 18.6663 8.23812 18.2654 6.19328 17.5828C5.17694 17.2435 4.27093 16.8134 3.59562 16.2783C2.93194 15.7524 2.33325 14.9906 2.33325 13.9997Z" fill="#00B487"/>
<path d="M2.33325 22.167V5.83366C2.33325 5.18933 2.85559 4.66699 3.49992 4.66699C4.14425 4.66699 4.66659 5.18933 4.66659 5.83366V22.167C4.66659 22.1692 4.66631 22.1751 4.67 22.1875C4.67413 22.2012 4.68427 22.2278 4.7076 22.2661C4.75677 22.3468 4.85735 22.4685 5.04484 22.617C5.42679 22.9196 6.05252 23.243 6.93156 23.5365C8.67834 24.1196 11.1728 24.5003 13.9999 24.5003C16.827 24.5003 19.3215 24.1196 21.0683 23.5365C21.9473 23.243 22.5731 22.9196 22.955 22.617C23.1425 22.4685 23.2431 22.3468 23.2922 22.2661C23.3156 22.2278 23.3257 22.2012 23.3298 22.1875C23.3335 22.1751 23.3333 22.1692 23.3333 22.167V5.83366C23.3333 5.18933 23.8556 4.66699 24.4999 4.66699C25.1443 4.66699 25.6666 5.18933 25.6666 5.83366V22.167C25.6666 23.1579 25.0679 23.9197 24.4042 24.4456C23.7289 24.9807 22.8229 25.4109 21.8066 25.7502C19.7617 26.4328 17.006 26.8337 13.9999 26.8337C10.9939 26.8337 8.23812 26.4328 6.19328 25.7502C5.17694 25.4109 4.27093 24.9807 3.59562 24.4456C2.93194 23.9197 2.33325 23.1579 2.33325 22.167Z" fill="#00B487"/>
</svg>
