<svg width="28" height="28" viewBox="0 0 28 28" fill="none" xmlns="http://www.w3.org/2000/svg">
<path d="M24.5001 4.66699C24.5001 4.02266 23.9777 3.50033 23.3334 3.50033H4.66675C4.02242 3.50033 3.50008 4.02266 3.50008 4.66699V9.33366C3.50008 9.97799 4.02242 10.5003 4.66675 10.5003H23.3334C23.9777 10.5003 24.5001 9.97799 24.5001 9.33366V4.66699ZM26.8334 9.33366C26.8334 11.2667 25.2664 12.8337 23.3334 12.8337H4.66675C2.73375 12.8337 1.16675 11.2667 1.16675 9.33366V4.66699C1.16675 2.734 2.73375 1.16699 4.66675 1.16699H23.3334C25.2664 1.16699 26.8334 2.734 26.8334 4.66699V9.33366Z" fill="#00B487"/>
<path d="M24.5001 18.667C24.5001 18.0227 23.9777 17.5003 23.3334 17.5003H4.66675C4.02242 17.5003 3.50008 18.0227 3.50008 18.667V23.3337C3.50008 23.978 4.02242 24.5003 4.66675 24.5003H23.3334C23.9777 24.5003 24.5001 23.978 24.5001 23.3337V18.667ZM26.8334 23.3337C26.8334 25.2667 25.2664 26.8337 23.3334 26.8337H4.66675C2.73375 26.8337 1.16675 25.2667 1.16675 23.3337V18.667C1.16675 16.734 2.73375 15.167 4.66675 15.167H23.3334C25.2664 15.167 26.8334 16.734 26.8334 18.667V23.3337Z" fill="#00B487"/>
<path d="M7.01131 5.83301L7.13094 5.8387C7.71922 5.89847 8.17798 6.39563 8.17798 6.99967C8.17798 7.60372 7.71922 8.10088 7.13094 8.16064L7.01131 8.16634H6.99992C6.35559 8.16634 5.83325 7.64401 5.83325 6.99967C5.83325 6.35534 6.35559 5.83301 6.99992 5.83301H7.01131Z" fill="#00B487"/>
<path d="M7.01131 19.833L7.13094 19.8387C7.71922 19.8985 8.17798 20.3956 8.17798 20.9997C8.17798 21.6037 7.71922 22.1009 7.13094 22.1606L7.01131 22.1663H6.99992C6.35559 22.1663 5.83325 21.644 5.83325 20.9997C5.83325 20.3553 6.35559 19.833 6.99992 19.833H7.01131Z" fill="#00B487"/>
</svg>
