<svg width="46" height="46" viewBox="0 0 46 46" fill="none" xmlns="http://www.w3.org/2000/svg">
<g clip-path="url(#clip0_519_7049)">
<path d="M23 28.75C26.1756 28.75 28.75 26.1756 28.75 23C28.75 19.8244 26.1756 17.25 23 17.25C19.8244 17.25 17.25 19.8244 17.25 23C17.25 26.1756 19.8244 28.75 23 28.75Z" stroke="#00B487" stroke-width="4" stroke-linecap="round" stroke-linejoin="round"/>
<path d="M37.1834 28.7494C36.9283 29.3274 36.8522 29.9687 36.9649 30.5905C37.0776 31.2122 37.3741 31.786 37.8159 32.2377L37.9309 32.3527C38.2873 32.7087 38.5701 33.1315 38.763 33.5968C38.9559 34.0622 39.0552 34.561 39.0552 35.0648C39.0552 35.5685 38.9559 36.0673 38.763 36.5327C38.5701 36.9981 38.2873 37.4208 37.9309 37.7768C37.5749 38.1333 37.1521 38.416 36.6868 38.6089C36.2214 38.8018 35.7226 38.9011 35.2188 38.9011C34.7151 38.9011 34.2163 38.8018 33.7509 38.6089C33.2855 38.416 32.8628 38.1333 32.5067 37.7768L32.3917 37.6618C31.94 37.22 31.3663 36.9236 30.7445 36.8108C30.1228 36.6981 29.4815 36.7742 28.9034 37.0293C28.3365 37.2723 27.853 37.6757 27.5125 38.19C27.172 38.7042 26.9892 39.3068 26.9867 39.9235V40.2494C26.9867 41.266 26.5829 42.241 25.864 42.9599C25.1451 43.6788 24.1701 44.0827 23.1534 44.0827C22.1368 44.0827 21.1617 43.6788 20.4428 42.9599C19.724 42.241 19.3201 41.266 19.3201 40.2494V40.0769C19.3052 39.4424 19.0999 38.8272 18.7307 38.311C18.3616 37.7949 17.8457 37.4017 17.2501 37.1827C16.672 36.9275 16.0307 36.8514 15.409 36.9642C14.7872 37.0769 14.2135 37.3733 13.7617 37.8152L13.6467 37.9302C13.2907 38.2866 12.868 38.5693 12.4026 38.7622C11.9372 38.9552 11.4384 39.0544 10.9347 39.0544C10.4309 39.0544 9.93209 38.9552 9.46673 38.7622C9.00137 38.5693 8.5786 38.2866 8.22258 37.9302C7.86617 37.5742 7.58343 37.1514 7.39052 36.686C7.19761 36.2207 7.09832 35.7219 7.09832 35.2181C7.09832 34.7143 7.19761 34.2155 7.39052 33.7502C7.58343 33.2848 7.86617 32.862 8.22258 32.506L8.33758 32.391C8.77944 31.9393 9.07585 31.3656 9.18859 30.7438C9.30133 30.1221 9.22522 29.4808 8.97008 28.9027C8.72712 28.3358 8.3237 27.8523 7.80947 27.5118C7.29525 27.1712 6.69267 26.9885 6.07592 26.986H5.75008C4.73342 26.986 3.75839 26.5821 3.03951 25.8633C2.32062 25.1444 1.91675 24.1693 1.91675 23.1527C1.91675 22.136 2.32062 21.161 3.03951 20.4421C3.75839 19.7232 4.73342 19.3193 5.75008 19.3193H5.92258C6.55699 19.3045 7.17226 19.0992 7.6884 18.73C8.20455 18.3608 8.5977 17.8449 8.81675 17.2493C9.07189 16.6713 9.14799 16.03 9.03526 15.4082C8.92252 14.7865 8.62611 14.2127 8.18425 13.761L8.06925 13.646C7.71284 13.29 7.4301 12.8672 7.23719 12.4019C7.04428 11.9365 6.94498 11.4377 6.94498 10.9339C6.94498 10.4302 7.04428 9.93135 7.23719 9.46599C7.4301 9.00064 7.71284 8.57786 8.06925 8.22185C8.42526 7.86544 8.84803 7.5827 9.31339 7.38979C9.77875 7.19688 10.2776 7.09758 10.7813 7.09758C11.2851 7.09758 11.7839 7.19688 12.2493 7.38979C12.7146 7.5827 13.1374 7.86544 13.4934 8.22185L13.6084 8.33685C14.0601 8.77871 14.6339 9.07512 15.2556 9.18786C15.8774 9.30059 16.5187 9.22449 17.0967 8.96935H17.2501C17.817 8.72639 18.3004 8.32296 18.641 7.80874C18.9815 7.29452 19.1643 6.69194 19.1667 6.07518V5.74935C19.1667 4.73269 19.5706 3.75766 20.2895 3.03877C21.0084 2.31988 21.9834 1.91602 23.0001 1.91602C24.0167 1.91602 24.9918 2.31988 25.7107 3.03877C26.4295 3.75766 26.8334 4.73269 26.8334 5.74935V5.92185C26.8359 6.53861 27.0186 7.14119 27.3592 7.65541C27.6997 8.16963 28.1832 8.57305 28.7501 8.81602C29.3282 9.07115 29.9695 9.14726 30.5912 9.03452C31.213 8.92179 31.7867 8.62538 32.2384 8.18352L32.3534 8.06852C32.7094 7.71211 33.1322 7.42936 33.5976 7.23645C34.0629 7.04354 34.5617 6.94425 35.0655 6.94425C35.5693 6.94425 36.0681 7.04354 36.5334 7.23645C36.9988 7.42936 37.4216 7.71211 37.7776 8.06852C38.134 8.42453 38.4167 8.8473 38.6096 9.31266C38.8026 9.77802 38.9018 10.2768 38.9018 10.7806C38.9018 11.2844 38.8026 11.7832 38.6096 12.2485C38.4167 12.7139 38.134 13.1367 37.7776 13.4927L37.6626 13.6077C37.2207 14.0594 36.9243 14.6331 36.8116 15.2549C36.6988 15.8766 36.7749 16.5179 37.0301 17.096V17.2493C37.273 17.8162 37.6765 18.2997 38.1907 18.6403C38.7049 18.9808 39.3075 19.1636 39.9242 19.166H40.2501C41.2667 19.166 42.2418 19.5699 42.9607 20.2888C43.6795 21.0077 44.0834 21.9827 44.0834 22.9993C44.0834 24.016 43.6795 24.991 42.9607 25.7099C42.2418 26.4288 41.2667 26.8327 40.2501 26.8327H40.0776C39.4608 26.8351 38.8582 27.0179 38.344 27.3584C37.8298 27.699 37.4264 28.1825 37.1834 28.7494Z" stroke="#00B487" stroke-width="4" stroke-linecap="round" stroke-linejoin="round"/>
</g>
<defs>
<clipPath id="clip0_519_7049">
<rect width="46" height="46" fill="white"/>
</clipPath>
</defs>
</svg>
