<svg width="46" height="46" viewBox="0 0 46 46" fill="none" xmlns="http://www.w3.org/2000/svg">
<path d="M38.3333 3.83398H7.66659C5.54949 3.83398 3.83325 5.55023 3.83325 7.66732V15.334C3.83325 17.4511 5.54949 19.1673 7.66659 19.1673H38.3333C40.4503 19.1673 42.1666 17.4511 42.1666 15.334V7.66732C42.1666 5.55023 40.4503 3.83398 38.3333 3.83398Z" stroke="#00B487" stroke-width="4" stroke-linecap="round" stroke-linejoin="round"/>
<path d="M38.3333 26.834H7.66659C5.54949 26.834 3.83325 28.5502 3.83325 30.6673V38.334C3.83325 40.4511 5.54949 42.1673 7.66659 42.1673H38.3333C40.4503 42.1673 42.1666 40.4511 42.1666 38.334V30.6673C42.1666 28.5502 40.4503 26.834 38.3333 26.834Z" stroke="#00B487" stroke-width="4" stroke-linecap="round" stroke-linejoin="round"/>
<path d="M11.5 11.5H11.52" stroke="#00B487" stroke-width="4" stroke-linecap="round" stroke-linejoin="round"/>
<path d="M11.5 34.5H11.52" stroke="#00B487" stroke-width="4" stroke-linecap="round" stroke-linejoin="round"/>
</svg>
