<svg width="46" height="46" viewBox="0 0 46 46" fill="none" xmlns="http://www.w3.org/2000/svg">
<g clip-path="url(#clip0_519_7093)">
<path d="M30.6666 30.6667L22.9999 23L15.3333 30.6667" stroke="#4C85D0" stroke-width="4" stroke-linecap="round" stroke-linejoin="round"/>
<path d="M23 23V40.25" stroke="#4C85D0" stroke-width="4" stroke-linecap="round" stroke-linejoin="round"/>
<path d="M39.0809 35.2467C40.9503 34.2276 42.4271 32.6149 43.2781 30.6632C44.1292 28.7116 44.3061 26.5321 43.7809 24.4687C43.2558 22.4053 42.0584 20.5756 40.3778 19.2683C38.6973 17.961 36.6292 17.2506 34.5 17.2492H32.085C31.5049 15.0052 30.4236 12.922 28.9224 11.1561C27.4213 9.39019 25.5393 7.98758 23.4181 7.05369C21.2968 6.11981 18.9914 5.67897 16.6753 5.7643C14.3591 5.84964 12.0924 6.45894 10.0456 7.54639C7.99884 8.63384 6.22521 10.1711 4.85807 12.0427C3.49093 13.9143 2.56587 16.0715 2.15242 18.352C1.73898 20.6326 1.84791 22.9772 2.47104 25.2096C3.09416 27.442 4.21526 29.5041 5.75005 31.2409" stroke="#4C85D0" stroke-width="4" stroke-linecap="round" stroke-linejoin="round"/>
<path d="M30.6666 30.6667L22.9999 23L15.3333 30.6667" stroke="#4C85D0" stroke-width="4" stroke-linecap="round" stroke-linejoin="round"/>
</g>
<defs>
<clipPath id="clip0_519_7093">
<rect width="46" height="46" fill="white"/>
</clipPath>
</defs>
</svg>
