<svg width="28" height="28" viewBox="0 0 28 28" fill="none" xmlns="http://www.w3.org/2000/svg">
<path d="M23.3333 15.167C23.3333 14.5227 22.8109 14.0003 22.1666 14.0003H5.83325C5.18892 14.0003 4.66659 14.5227 4.66659 15.167V23.3337C4.66659 23.978 5.18892 24.5003 5.83325 24.5003H22.1666C22.8109 24.5003 23.3333 23.978 23.3333 23.3337V15.167ZM25.6666 23.3337C25.6666 25.2667 24.0996 26.8337 22.1666 26.8337H5.83325C3.90026 26.8337 2.33325 25.2667 2.33325 23.3337V15.167C2.33325 13.234 3.90026 11.667 5.83325 11.667H22.1666C24.0996 11.667 25.6666 13.234 25.6666 15.167V23.3337Z" fill="#00B487"/>
<path d="M18.6667 12.8337V8.16699C18.6667 6.92932 18.1746 5.74268 17.2995 4.86751C16.4243 3.99234 15.2377 3.50033 14 3.50033C12.7623 3.50033 11.5757 3.99234 10.7005 4.86751C9.82535 5.74268 9.33333 6.92932 9.33333 8.16699V12.8337C9.33333 13.478 8.811 14.0003 8.16667 14.0003C7.52233 14.0003 7 13.478 7 12.8337V8.16699C7 6.31048 7.73803 4.53053 9.05078 3.21777C10.3635 1.90502 12.1435 1.16699 14 1.16699C15.8565 1.16699 17.6365 1.90502 18.9492 3.21777C20.262 4.53053 21 6.31048 21 8.16699V12.8337C21 13.478 20.4777 14.0003 19.8333 14.0003C19.189 14.0003 18.6667 13.478 18.6667 12.8337Z" fill="#00B487"/>
</svg>
