<svg width="46" height="46" viewBox="0 0 46 46" fill="none" xmlns="http://www.w3.org/2000/svg">
<path d="M42.1666 23H3.83325" stroke="#4C85D0" stroke-width="4" stroke-linecap="round" stroke-linejoin="round"/>
<path d="M10.4458 9.79352L3.83325 22.9993V34.4993C3.83325 35.516 4.23712 36.491 4.95601 37.2099C5.6749 37.9288 6.64992 38.3327 7.66659 38.3327H38.3333C39.3499 38.3327 40.3249 37.9288 41.0438 37.2099C41.7627 36.491 42.1666 35.516 42.1666 34.4993V22.9993L35.5541 9.79352C35.2367 9.15486 34.7475 8.61739 34.1414 8.24155C33.5353 7.86571 32.8364 7.66639 32.1233 7.66602H13.8766C13.1634 7.66639 12.4645 7.86571 11.8584 8.24155C11.2523 8.61739 10.7631 9.15486 10.4458 9.79352Z" stroke="#4C85D0" stroke-width="4" stroke-linecap="round" stroke-linejoin="round"/>
<path d="M11.5 30.666H11.52" stroke="#4C85D0" stroke-width="4" stroke-linecap="round" stroke-linejoin="round"/>
<path d="M19.1667 30.666H19.1867" stroke="#4C85D0" stroke-width="4" stroke-linecap="round" stroke-linejoin="round"/>
</svg>
