<svg width="46" height="47" viewBox="0 0 46 47" fill="none" xmlns="http://www.w3.org/2000/svg">
<g clip-path="url(#clip0_519_6967)">
<path d="M34.5001 8.16699H11.5001C9.38299 8.16699 7.66675 9.88323 7.66675 12.0003V35.0003C7.66675 37.1174 9.38299 38.8337 11.5001 38.8337H34.5001C36.6172 38.8337 38.3334 37.1174 38.3334 35.0003V12.0003C38.3334 9.88323 36.6172 8.16699 34.5001 8.16699Z" stroke="#00B487" stroke-width="4" stroke-linecap="round" stroke-linejoin="round"/>
<path d="M28.75 17.75H17.25V29.25H28.75V17.75Z" stroke="#00B487" stroke-width="4" stroke-linecap="round" stroke-linejoin="round"/>
<path d="M17.25 2.41699V8.16699" stroke="#00B487" stroke-width="4" stroke-linecap="round" stroke-linejoin="round"/>
<path d="M28.75 2.41699V8.16699" stroke="#00B487" stroke-width="4" stroke-linecap="round" stroke-linejoin="round"/>
<path d="M17.25 38.833V44.583" stroke="#00B487" stroke-width="4" stroke-linecap="round" stroke-linejoin="round"/>
<path d="M28.75 38.833V44.583" stroke="#00B487" stroke-width="4" stroke-linecap="round" stroke-linejoin="round"/>
<path d="M38.3333 17.75H44.0833" stroke="#00B487" stroke-width="4" stroke-linecap="round" stroke-linejoin="round"/>
<path d="M38.3333 27.333H44.0833" stroke="#00B487" stroke-width="4" stroke-linecap="round" stroke-linejoin="round"/>
<path d="M1.91675 17.75H7.66675" stroke="#00B487" stroke-width="4" stroke-linecap="round" stroke-linejoin="round"/>
<path d="M1.91675 27.333H7.66675" stroke="#00B487" stroke-width="4" stroke-linecap="round" stroke-linejoin="round"/>
</g>
<defs>
<clipPath id="clip0_519_6967">
<rect width="46" height="46" fill="white" transform="translate(0 0.5)"/>
</clipPath>
</defs>
</svg>
