<svg width="28" height="28" viewBox="0 0 28 28" fill="none" xmlns="http://www.w3.org/2000/svg">
<path d="M24.5001 5.83301C24.5001 5.18868 23.9777 4.66634 23.3334 4.66634H4.66675C4.02242 4.66634 3.50008 5.18868 3.50008 5.83301V17.4997C3.50008 18.144 4.02242 18.6663 4.66675 18.6663H23.3334C23.9777 18.6663 24.5001 18.144 24.5001 17.4997V5.83301ZM26.8334 17.4997C26.8334 19.4327 25.2664 20.9997 23.3334 20.9997H4.66675C2.73375 20.9997 1.16675 19.4327 1.16675 17.4997V5.83301C1.16675 3.90001 2.73375 2.33301 4.66675 2.33301H23.3334C25.2664 2.33301 26.8334 3.90001 26.8334 5.83301V17.4997Z" fill="#00B487"/>
<path d="M18.6667 23.333C19.3111 23.333 19.8334 23.8553 19.8334 24.4997C19.8334 25.144 19.3111 25.6663 18.6667 25.6663H9.33341C8.68908 25.6663 8.16675 25.144 8.16675 24.4997C8.16675 23.8553 8.68908 23.333 9.33341 23.333H18.6667Z" fill="#00B487"/>
<path d="M12.8333 24.5003V19.8337C12.8333 19.1893 13.3556 18.667 13.9999 18.667C14.6443 18.667 15.1666 19.1893 15.1666 19.8337V24.5003C15.1666 25.1447 14.6443 25.667 13.9999 25.667C13.3556 25.667 12.8333 25.1447 12.8333 24.5003Z" fill="#00B487"/>
</svg>
