<svg width="46" height="46" viewBox="0 0 46 46" fill="none" xmlns="http://www.w3.org/2000/svg">
<g clip-path="url(#clip0_519_6983)">
<path d="M44.0833 7.66699V19.167H32.5833" stroke="#00B487" stroke-width="4" stroke-linecap="round" stroke-linejoin="round"/>
<path d="M1.91675 38.333V26.833H13.4167" stroke="#00B487" stroke-width="4" stroke-linecap="round" stroke-linejoin="round"/>
<path d="M6.72758 17.2503C7.69965 14.5034 9.35175 12.0474 11.5297 10.1116C13.7077 8.17576 16.3406 6.82323 19.1826 6.18018C22.0247 5.53712 24.9834 5.6245 27.7825 6.43416C30.5817 7.24383 33.1302 8.74938 35.1901 10.8103L44.0834 19.167M1.91675 26.8337L10.8101 35.1903C12.87 37.2513 15.4185 38.7569 18.2176 39.5665C21.0168 40.3762 23.9755 40.4636 26.8175 39.8205C29.6596 39.1775 32.2925 37.8249 34.4704 35.8891C36.6484 33.9533 38.3005 31.4973 39.2726 28.7503" stroke="#00B487" stroke-width="4" stroke-linecap="round" stroke-linejoin="round"/>
</g>
<defs>
<clipPath id="clip0_519_6983">
<rect width="46" height="46" fill="white"/>
</clipPath>
</defs>
</svg>
