<svg width="28" height="28" viewBox="0 0 28 28" fill="none" xmlns="http://www.w3.org/2000/svg">
<path d="M12.8333 23.3333V11.6667C12.8333 11.0223 13.3556 10.5 13.9999 10.5C14.6443 10.5 15.1666 11.0223 15.1666 11.6667V23.3333C15.1666 23.9777 14.6443 24.5 13.9999 24.5C13.3556 24.5 12.8333 23.9777 12.8333 23.3333Z" fill="#00B487"/>
<path d="M19.8333 23.3333V4.66667C19.8333 4.02233 20.3556 3.5 20.9999 3.5C21.6443 3.5 22.1666 4.02233 22.1666 4.66667V23.3333C22.1666 23.9777 21.6443 24.5 20.9999 24.5C20.3556 24.5 19.8333 23.9777 19.8333 23.3333Z" fill="#00B487"/>
<path d="M5.83325 23.3333V18.6667C5.83325 18.0223 6.35559 17.5 6.99992 17.5C7.64425 17.5 8.16659 18.0223 8.16659 18.6667V23.3333C8.16659 23.9777 7.64425 24.5 6.99992 24.5C6.35559 24.5 5.83325 23.9777 5.83325 23.3333Z" fill="#00B487"/>
</svg>
