<svg width="28" height="28" viewBox="0 0 28 28" fill="none" xmlns="http://www.w3.org/2000/svg">
<path d="M11.6666 2.33301L11.7862 2.3387C12.3744 2.39859 12.8333 2.89572 12.8333 3.49967V11.6663C12.8333 12.3107 12.3109 12.833 11.6666 12.833H3.49992C2.85559 12.833 2.33325 12.3107 2.33325 11.6663V3.49967L2.33895 3.38005C2.39884 2.79189 2.89596 2.33301 3.49992 2.33301H11.6666ZM4.66659 10.4997H10.4999V4.66634H4.66659V10.4997Z" fill="#00B487"/>
<path d="M24.5001 2.33301L24.6197 2.3387C25.2079 2.39859 25.6667 2.89572 25.6667 3.49967V11.6663C25.6667 12.3107 25.1444 12.833 24.5001 12.833H16.3334C15.6891 12.833 15.1667 12.3107 15.1667 11.6663V3.49967L15.1724 3.38005C15.2323 2.79189 15.7295 2.33301 16.3334 2.33301H24.5001ZM17.5001 10.4997H23.3334V4.66634H17.5001V10.4997Z" fill="#00B487"/>
<path d="M24.5001 15.167L24.6197 15.1727C25.2079 15.2326 25.6667 15.7297 25.6667 16.3337V24.5003C25.6667 25.1447 25.1444 25.667 24.5001 25.667H16.3334C15.6891 25.667 15.1667 25.1447 15.1667 24.5003V16.3337L15.1724 16.214C15.2323 15.6259 15.7295 15.167 16.3334 15.167H24.5001ZM17.5001 23.3337H23.3334V17.5003H17.5001V23.3337Z" fill="#00B487"/>
<path d="M11.6666 15.167L11.7862 15.1727C12.3744 15.2326 12.8333 15.7297 12.8333 16.3337V24.5003C12.8333 25.1447 12.3109 25.667 11.6666 25.667H3.49992C2.85559 25.667 2.33325 25.1447 2.33325 24.5003V16.3337L2.33895 16.214C2.39884 15.6259 2.89596 15.167 3.49992 15.167H11.6666ZM4.66659 23.3337H10.4999V17.5003H4.66659V23.3337Z" fill="#00B487"/>
</svg>
