<svg width="138" height="138" viewBox="0 0 138 138" fill="none" xmlns="http://www.w3.org/2000/svg">
<path d="M106.607 106.54H30.998V37.9008C30.998 17.0036 47.9541 0 68.8026 0C89.6512 0 106.607 17.0036 106.607 37.9008V106.536V106.54ZM38.2899 99.2253H99.3109V37.9008C99.3109 21.032 85.6241 7.31039 68.7982 7.31039C51.9722 7.31039 38.2854 21.032 38.2854 37.9008V99.2208L38.2899 99.2253Z" fill="#12306D"/>
<path d="M0 59.5242C0 51.2399 6.71573 44.5242 15 44.5242H123C131.284 44.5242 138 51.2399 138 59.5242V132.777C138 135.553 135.638 137.813 132.725 137.813H5.27464C2.3672 137.813 0 135.558 0 132.777V59.5242Z" fill="url(#paint0_linear_878_2123)"/>
<path d="M78.3809 86.7568C78.3809 81.6736 74.2697 77.5491 69.1924 77.5491C64.1152 77.5491 60.0039 81.6689 60.0039 86.7568C60.0039 91.8447 64.1152 95.9646 69.1924 95.9646C74.2697 95.9646 78.3809 91.8447 78.3809 86.7568Z" fill="#12306D"/>
<path d="M69.1928 104.751C67.5781 104.751 66.2715 103.442 66.2715 101.824V87.1777H72.1187V101.824C72.1187 103.442 70.8121 104.751 69.1974 104.751H69.1928Z" fill="#12306D"/>
<defs>
<linearGradient id="paint0_linear_878_2123" x1="107.275" y1="152.62" x2="36.5803" y2="24.3657" gradientUnits="userSpaceOnUse">
<stop stop-color="#4E7AE9"/>
<stop offset="1" stop-color="#9FC2FF"/>
</linearGradient>
</defs>
</svg>
