<svg width="190" height="173" viewBox="0 0 190 173" fill="none" xmlns="http://www.w3.org/2000/svg">
<g clip-path="url(#clip0_1024_353)">
<path d="M59.4353 143.918C59.0305 140.136 55.6291 137.395 51.8569 137.814C48.0751 138.219 45.3359 141.608 45.7407 145.39C46.1455 149.172 49.5469 151.913 53.3168 151.506C57.0986 151.101 59.8378 147.712 59.433 143.93L59.4353 143.918Z" fill="#5282FF"/>
<path d="M131.432 142.742C131.027 138.96 127.638 136.221 123.856 136.625C120.074 137.03 117.335 140.42 117.74 144.202C118.145 147.983 121.534 150.723 125.316 150.318C129.098 149.913 131.837 146.524 131.422 142.727L131.432 142.742Z" fill="#5282FF"/>
<path opacity="0.2" d="M149.34 27.1796L103.521 73.4424L126.201 144.086L122.77 145.193L99.9102 74.0039L21.9798 66.2091L22.345 62.6247L101.365 70.5323L147.075 24.3807L149.34 27.1796Z" fill="url(#paint0_linear_1024_353)"/>
<path d="M106.689 71.7493C106.421 69.2618 104.186 67.46 101.698 67.7276C99.2109 67.9953 97.409 70.2307 97.6766 72.7181C97.9426 75.2143 100.18 77.0074 102.667 76.7398C105.155 76.4721 106.956 74.2367 106.689 71.7493Z" fill="#C6D5FF"/>
<path d="M106.689 71.7493C106.421 69.2618 104.186 67.46 101.698 67.7276C99.2109 67.9953 97.409 70.2307 97.6766 72.7181C97.9426 75.2143 100.18 77.0074 102.667 76.7398C105.155 76.4721 106.956 74.2367 106.689 71.7493Z" fill="#CCDAFF"/>
<path d="M171.742 100.954L168.315 102.099L146.225 27.145L79.6059 18.6903L104.497 103.791L174.298 103.429L115.292 147.695L63.2106 147.695L47.2305 163.88L19.2906 63.5793L77.8814 12.7935L78.5171 14.967L149.043 24.1927L171.742 100.954ZM23.5603 64.6479L48.9847 155.911L57.2063 147.695L53.9256 147.695L53.809 144.093L60.8068 144.098L100.845 104.089L76.0056 19.1952L23.5603 64.6479ZM103.294 107.393L103.282 107.111L66.7586 144.101L113.763 144.132L163.678 107.393L103.294 107.393Z" fill="url(#paint1_linear_1024_353)"/>
<path d="M27.9162 63.135C27.5684 59.8961 24.6627 57.5581 21.4239 57.9059C18.185 58.2538 15.836 61.1573 16.1838 64.3962C16.5317 67.6351 19.4462 69.9862 22.674 69.6363C25.9129 69.2884 28.2619 66.3849 27.9162 63.135Z" fill="#5282FF"/>
<path d="M27.9162 63.135C27.5684 59.8961 24.6627 57.5581 21.4239 57.9059C18.185 58.2538 15.836 61.1573 16.1838 64.3962C16.5317 67.6351 19.4462 69.9862 22.674 69.6363C25.9129 69.2884 28.2619 66.3849 27.9162 63.135Z" fill="url(#paint2_linear_1024_353)"/>
<path d="M27.9162 63.135C27.5684 59.8961 24.6627 57.5581 21.4239 57.9059C18.185 58.2538 15.836 61.1573 16.1838 64.3962C16.5317 67.6351 19.4462 69.9862 22.674 69.6363C25.9129 69.2884 28.2619 66.3849 27.9162 63.135Z" fill="url(#paint3_linear_1024_353)"/>
<path d="M27.9162 63.135C27.5684 59.8961 24.6627 57.5581 21.4239 57.9059C18.185 58.2538 15.836 61.1573 16.1838 64.3962C16.5317 67.6351 19.4462 69.9862 22.674 69.6363C25.9129 69.2884 28.2619 66.3849 27.9162 63.135Z" fill="url(#paint4_linear_1024_353)"/>
<path d="M82.8802 15.4683C82.5503 12.3865 79.7785 10.1525 76.7065 10.4842C73.6246 10.8141 71.4023 13.578 71.7224 16.658C72.0523 19.7398 74.8143 21.972 77.8961 21.6421C80.9779 21.3122 83.2119 18.5404 82.8802 15.4683Z" fill="#5282FF"/>
<path d="M82.8802 15.4683C82.5503 12.3865 79.7785 10.1525 76.7065 10.4842C73.6246 10.8141 71.4023 13.578 71.7224 16.658C72.0523 19.7398 74.8143 21.972 77.8961 21.6421C80.9779 21.3122 83.2119 18.5404 82.8802 15.4683Z" fill="url(#paint5_linear_1024_353)"/>
<path d="M109.425 103.996C109.011 100.131 105.533 97.3419 101.671 97.7433C97.8062 98.157 95.0194 101.623 95.4208 105.485C95.8345 109.35 99.3102 112.151 103.175 111.737C107.039 111.324 109.838 107.86 109.425 103.996Z" fill="url(#paint6_linear_1024_353)"/>
</g>
<path d="M175.422 101.853C175.101 98.8246 172.394 96.6478 169.375 96.971C166.357 97.2941 164.169 100.009 164.501 103.029C164.825 106.048 167.53 108.234 170.55 107.902C173.569 107.578 175.757 104.864 175.432 101.855L175.422 101.853Z" fill="#5282FF"/>
<path d="M175.422 101.853C175.101 98.8246 172.394 96.6478 169.375 96.971C166.357 97.2941 164.169 100.009 164.501 103.029C164.825 106.048 167.53 108.234 170.55 107.902C173.569 107.578 175.757 104.864 175.432 101.855L175.422 101.853Z" fill="url(#paint7_linear_1024_353)"/>
<path d="M152.696 24.5155C152.447 22.1864 150.352 20.4981 148.03 20.7488C145.701 20.9981 144.022 23.0869 144.264 25.4146C144.513 27.7437 146.6 29.4306 148.93 29.1813C151.259 28.932 152.947 26.8372 152.696 24.5155Z" fill="#5282FF"/>
<path d="M152.696 24.5155C152.447 22.1864 150.352 20.4981 148.03 20.7488C145.701 20.9981 144.022 23.0869 144.264 25.4146C144.513 27.7437 146.6 29.4306 148.93 29.1813C151.259 28.932 152.947 26.8372 152.696 24.5155Z" fill="url(#paint8_linear_1024_353)"/>
<defs>
<linearGradient id="paint0_linear_1024_353" x1="90.2018" y1="113.797" x2="-46.4802" y2="38.7639" gradientUnits="userSpaceOnUse">
<stop stop-color="#4E7AE9"/>
<stop offset="1" stop-color="#9FC2FF"/>
</linearGradient>
<linearGradient id="paint1_linear_1024_353" x1="118.973" y1="202.934" x2="17.0431" y2="9.0103" gradientUnits="userSpaceOnUse">
<stop stop-color="#4E7AE9"/>
<stop offset="1" stop-color="#9FC2FF"/>
</linearGradient>
<linearGradient id="paint2_linear_1024_353" x1="23.7972" y1="72.0231" x2="16.0178" y2="57.5901" gradientUnits="userSpaceOnUse">
<stop stop-color="#4E7AE9"/>
<stop offset="1" stop-color="#9FC2FF"/>
</linearGradient>
<linearGradient id="paint3_linear_1024_353" x1="37.7453" y1="70.4925" x2="17.6322" y2="61.3522" gradientUnits="userSpaceOnUse">
<stop stop-color="#2A5BD9"/>
<stop offset="1" stop-color="#B7D1FF"/>
</linearGradient>
<linearGradient id="paint4_linear_1024_353" x1="26.1883" y1="67.9219" x2="14.2117" y2="60.5831" gradientUnits="userSpaceOnUse">
<stop stop-color="#2A5BD9"/>
<stop offset="1" stop-color="#B7D1FF"/>
</linearGradient>
<linearGradient id="paint5_linear_1024_353" x1="81.2387" y1="20.0115" x2="69.8498" y2="13.0341" gradientUnits="userSpaceOnUse">
<stop stop-color="#2A5BD9"/>
<stop offset="1" stop-color="#B7D1FF"/>
</linearGradient>
<linearGradient id="paint6_linear_1024_353" x1="108.422" y1="109.317" x2="94.6014" y2="95.3006" gradientUnits="userSpaceOnUse">
<stop stop-color="#2A5BD9"/>
<stop offset="1" stop-color="#B7D1FF"/>
</linearGradient>
<linearGradient id="paint7_linear_1024_353" x1="174.648" y1="106.013" x2="163.847" y2="95.0682" gradientUnits="userSpaceOnUse">
<stop stop-color="#2A5BD9"/>
<stop offset="1" stop-color="#B7D1FF"/>
</linearGradient>
<linearGradient id="paint8_linear_1024_353" x1="151.456" y1="27.949" x2="142.849" y2="22.6759" gradientUnits="userSpaceOnUse">
<stop stop-color="#2A5BD9"/>
<stop offset="1" stop-color="#B7D1FF"/>
</linearGradient>
<clipPath id="clip0_1024_353">
<rect width="165" height="144.152" fill="white" transform="translate(27.1875) rotate(10.8713)"/>
</clipPath>
</defs>
</svg>
